PathFileType  4	(X/Y/Z) C:\Users\wagnerel85475\Documents\Thesis\opencap-core\Data\3375ffbc-daeb-4a43-b4f7-ac9899cd4c71\MarkerData\PreAugmentation
DataRate	CameraRate	NumFrames	NumMarkers	Units	OrigDataRate	OrigDataStartFrame	OrigNumFrames
60.0	60.0	9	20	m	60.0	220	585
Frame#	Time	Neck			RShoulder			RElbow			RWrist			LShoulder			LElbow			LWrist			midHip			RHip			RKnee			RAnkle			LHip			LKnee			LAnkle			LBigToe			LSmallToe			LHeel			RBigToe			RSmallToe			RHeel			
		X1	Y1	Z1	X2	Y2	Z2	X3	Y3	Z3	X4	Y4	Z4	X5	Y5	Z5	X6	Y6	Z6	X7	Y7	Z7	X8	Y8	Z8	X9	Y9	Z9	X10	Y10	Z10	X11	Y11	Z11	X12	Y12	Z12	X13	Y13	Z13	X14	Y14	Z14	X15	Y15	Z15	X16	Y16	Z16	X17	Y17	Z17	X18	Y18	Z18	X19	Y19	Z19	X20	Y20	Z20	

220	3.6500000	0.2662800	1.8398800	-0.0895700	0.2835600	1.8079000	0.0719500	0.2236200	1.5098700	0.1540600	0.3071800	1.2212500	0.2034000	0.2862200	1.8816100	-0.2614100	0.4015600	2.1331800	-0.4282200	0.4444900	2.4218900	-0.3907600	0.3284700	1.2655000	-0.1080600	0.3455800	1.2688400	0.0218500	0.2468700	0.7745800	-0.0102400	0.1739600	0.2681100	-0.0254800	0.3104400	1.2698300	-0.2261000	0.1977500	0.7752400	-0.1903000	0.1774700	0.2568400	-0.1833000	0.3495900	0.1940400	-0.2327500	0.2835100	0.1992000	-0.2765700	0.1543500	0.2224300	-0.1728400	0.3807200	0.1930100	-0.0261400	0.3644600	0.1974500	0.0266600	0.1508900	0.2163700	-0.0338000
221	3.6666667	0.2667500	1.8442300	-0.0898400	0.2825000	1.8079800	0.0720000	0.2341700	1.5121100	0.1492700	0.3075400	1.2244100	0.2033000	0.2858900	1.8854000	-0.2611500	0.4005500	2.1337200	-0.4281200	0.4450200	2.4213000	-0.3898700	0.3285400	1.2653300	-0.1080000	0.3457900	1.2687100	0.0220000	0.2475600	0.7751300	-0.0100500	0.1738700	0.2681500	-0.0254500	0.2990900	1.2697200	-0.2219100	0.1969400	0.7754900	-0.1903100	0.1766200	0.2565500	-0.1830400	0.3401300	0.1920200	-0.2364300	0.2837000	0.1990500	-0.2766600	0.1538000	0.2223400	-0.1727800	0.3803600	0.1929100	-0.0259200	0.3644000	0.1974300	0.0267600	0.1498100	0.2163500	-0.0333500
222	3.6833333	0.2662400	1.8443100	-0.0899600	0.2837200	1.8078300	0.0719100	0.2341600	1.5123500	0.1489600	0.3073000	1.2246700	0.2032700	0.2869900	1.8853300	-0.2612000	0.4016200	2.1331600	-0.4283100	0.4542600	2.4150700	-0.3861900	0.3283500	1.2655200	-0.1079800	0.3452900	1.2652600	0.0219200	0.2468900	0.7746100	-0.0102000	0.1740400	0.2682400	-0.0255000	0.3102000	1.2698800	-0.2259800	0.2089800	0.7765200	-0.1949000	0.1774700	0.2569600	-0.1833100	0.3384100	0.1955100	-0.2371800	0.2833800	0.1992200	-0.2766500	0.1543900	0.2224800	-0.1728300	0.3808000	0.1966200	-0.0265400	0.3546500	0.1986000	0.0308300	0.1510100	0.2165200	-0.0338800
223	3.7000000	0.2669500	1.8442700	-0.0899100	0.2709700	1.8091700	0.0684900	0.2341500	1.5121200	0.1492200	0.3076700	1.2246400	0.2031900	0.2861000	1.8854200	-0.2611400	0.4005300	2.1337100	-0.4281400	0.4546600	2.4113200	-0.3858400	0.3285900	1.2652900	-0.1080000	0.3455900	1.2650800	0.0220300	0.2475700	0.7751500	-0.0099800	0.1738800	0.2681900	-0.0254700	0.3096500	1.2660200	-0.2262100	0.2082200	0.7768400	-0.1948700	0.1767200	0.2565800	-0.1830200	0.3392900	0.1957300	-0.2368900	0.2836000	0.1990700	-0.2767200	0.1539700	0.2223900	-0.1727400	0.3805400	0.1964600	-0.0263500	0.3546400	0.1985200	0.0308700	0.1498500	0.2164200	-0.0333800
224	3.7166667	0.2551700	1.8456500	-0.0937200	0.2721500	1.8091400	0.0683400	0.2335400	1.5094300	0.1489300	0.3073700	1.2252000	0.2031000	0.2763400	1.8825200	-0.2651700	0.4017500	2.1330700	-0.4283500	0.4542200	2.4115700	-0.3867900	0.3286000	1.2614500	-0.1079700	0.3455600	1.2610200	0.0219400	0.2358000	0.7771100	-0.0141700	0.1741500	0.2682300	-0.0255200	0.3100000	1.2659700	-0.2260300	0.2094900	0.7719500	-0.1950200	0.1768500	0.2610600	-0.1828500	0.3482800	0.1980600	-0.2415000	0.2727400	0.1967700	-0.2808200	0.1545600	0.2225500	-0.1727600	0.3807500	0.1966500	-0.0265900	0.3546200	0.1986000	0.0308000	0.1511200	0.2165200	-0.0338800
225	3.7333333	0.2560000	1.8456400	-0.0936800	0.2709400	1.8092800	0.0684400	0.2340000	1.5120500	0.1491200	0.3076900	1.2250200	0.2030000	0.2754100	1.8825900	-0.2651300	0.4003300	2.1301800	-0.4286100	0.4548300	2.4110900	-0.3857900	0.3287800	1.2612500	-0.1079900	0.3458000	1.2608900	0.0220600	0.2358900	0.7738800	-0.0136900	0.1740900	0.2681800	-0.0254900	0.2989400	1.2657800	-0.2219700	0.1974500	0.7710100	-0.1904200	0.1760500	0.2607300	-0.1825800	0.3492800	0.1984600	-0.2411800	0.2731300	0.1967100	-0.2808700	0.1652100	0.2248600	-0.1688000	0.3804300	0.1964700	-0.0263500	0.3545500	0.1985100	0.0309000	0.1501400	0.2163900	-0.0334300
226	3.7500000	0.2656400	1.8444500	-0.0982600	0.2722000	1.8091100	0.0682900	0.2338300	1.5093400	0.1487700	0.3167600	1.2255700	0.1982000	0.2758800	1.8787200	-0.2654500	0.4014700	2.1295800	-0.4287800	0.4541700	2.4114700	-0.3868400	0.3284600	1.2614800	-0.1079600	0.3454500	1.2610600	0.0219400	0.2357800	0.7772100	-0.0141300	0.1742600	0.2682400	-0.0255600	0.2992400	1.2659100	-0.2217200	0.1985900	0.7742200	-0.1907100	0.1768800	0.2610400	-0.1828600	0.3483900	0.1980900	-0.2416100	0.2728200	0.1967900	-0.2809000	0.1659500	0.2209600	-0.1683800	0.3710800	0.1943100	-0.0221400	0.3544800	0.1985800	0.0308600	0.1513500	0.2165300	-0.0339700
227	3.7666667	0.2664900	1.8444800	-0.0982400	0.2710300	1.8092300	0.0683800	0.2442200	1.5115000	0.1441100	0.3169700	1.2255300	0.1981100	0.2744800	1.8829200	-0.2657300	0.4004200	2.1302400	-0.4286600	0.4549300	2.4110200	-0.3857600	0.3287700	1.2612600	-0.1080400	0.3457600	1.2609100	0.0220100	0.2364400	0.7778200	-0.0139500	0.1740900	0.2682100	-0.0255100	0.3095500	1.2697000	-0.2263400	0.2088500	0.7757500	-0.1951600	0.1760700	0.2606800	-0.1825900	0.3494600	0.1984200	-0.2412200	0.2731900	0.1966800	-0.2809000	0.1653800	0.2208300	-0.1683600	0.3708100	0.1941900	-0.0219400	0.3545000	0.1985700	0.0309000	0.1502000	0.2164500	-0.0334700
228	3.7833333	0.2655900	1.8444700	-0.0982800	0.2721100	1.8091500	0.0682600	0.2340700	1.5121900	0.1488100	0.3166200	1.2258100	0.1981300	0.2753100	1.8827300	-0.2657800	0.4015700	2.1295500	-0.4288400	0.4542700	2.4115300	-0.3868500	0.3280100	1.2655100	-0.1080400	0.3451000	1.2651800	0.0218600	0.2358200	0.7772100	-0.0141300	0.1742300	0.2682400	-0.0255600	0.2883500	1.2659600	-0.2258300	0.2095800	0.7720100	-0.1950400	0.1768600	0.2610500	-0.1828600	0.3485200	0.1980800	-0.2415100	0.2729200	0.1968100	-0.2808400	0.1547600	0.2185000	-0.1723100	0.3710100	0.1943000	-0.0221100	0.3544100	0.1985700	0.0308800	0.1513000	0.2165500	-0.0339900
